<svg xmlns="https://www.w3.org/2000/svg" xmlns:xlink="https://www.w3.org/1999/xlink" viewBox="0 0 399.56 335.85"><defs><style>.cls-1{fill:aqua;}.cls-2{fill:url(#Degradado_sin_nombre_12);}.cls-3{fill:url(#Degradado_sin_nombre_12-2);}.cls-4{fill:url(#Degradado_sin_nombre_12-3);}.cls-5{fill:url(#Degradado_sin_nombre_12-4);}.cls-6{fill:url(#Degradado_sin_nombre_12-5);}.cls-7{fill:url(#Degradado_sin_nombre_12-6);}.cls-8{fill:url(#Degradado_sin_nombre_12-7);}.cls-9{fill:url(#Degradado_sin_nombre_12-8);}.cls-10{fill:url(#Degradado_sin_nombre_12-9);}.cls-11{fill:url(#Degradado_sin_nombre_12-10);}.cls-12{fill:url(#Degradado_sin_nombre_12-11);}.cls-13{fill:url(#Degradado_sin_nombre_12-12);}.cls-14{fill:url(#Degradado_sin_nombre_12-13);}.cls-15{fill:url(#Degradado_sin_nombre_12-14);}.cls-16{fill:url(#Degradado_sin_nombre_12-15);}.cls-17{fill:url(#Degradado_sin_nombre_12-16);}.cls-18{fill:url(#Degradado_sin_nombre_12-17);}.cls-19{fill:url(#Degradado_sin_nombre_12-18);}.cls-20{fill:url(#Degradado_sin_nombre_12-19);}.cls-21{fill:url(#Degradado_sin_nombre_12-20);}.cls-22{fill:url(#Degradado_sin_nombre_12-21);}.cls-23{fill:url(#Degradado_sin_nombre_12-22);}.cls-24{fill:url(#Degradado_sin_nombre_12-23);}.cls-25{fill:url(#Degradado_sin_nombre_12-24);}.cls-26{fill:url(#Degradado_sin_nombre_12-25);}.cls-27{fill:url(#Degradado_sin_nombre_12-26);}.cls-28{fill:url(#Degradado_sin_nombre_12-27);}.cls-29{fill:url(#Degradado_sin_nombre_12-28);}.cls-30{fill:url(#Degradado_sin_nombre_12-29);}.cls-31{fill:url(#Degradado_sin_nombre_12-30);}.cls-32{fill:url(#Degradado_sin_nombre_12-31);}.cls-33{fill:url(#Degradado_sin_nombre_12-32);}.cls-34{fill:url(#Degradado_sin_nombre_12-33);}.cls-35{fill:url(#Degradado_sin_nombre_12-34);}.cls-36{fill:url(#Degradado_sin_nombre_12-35);}.cls-37{fill:url(#Degradado_sin_nombre_12-36);}.cls-38{fill:url(#Degradado_sin_nombre_12-37);}.cls-39{fill:url(#Degradado_sin_nombre_12-38);}.cls-40{fill:url(#Degradado_sin_nombre_12-39);}.cls-41{fill:url(#Degradado_sin_nombre_12-40);}.cls-42{fill:url(#Degradado_sin_nombre_12-41);}.cls-43{fill:url(#Degradado_sin_nombre_12-42);}</style><linearGradient id="Degradado_sin_nombre_12" x1="348.02" y1="310.48" x2="399.54" y2="310.48" gradientUnits="userSpaceOnUse"><stop offset="0" stop-color="#ff0"/><stop offset="0.34" stop-color="#f6ff00"/><stop offset="1" stop-color="lime"/></linearGradient><linearGradient id="Degradado_sin_nombre_12-2" x1="348.02" y1="253.48" x2="399.54" y2="253.48" xlink:href="#Degradado_sin_nombre_12"/><linearGradient id="Degradado_sin_nombre_12-3" x1="348.02" y1="196.48" x2="399.54" y2="196.48" xlink:href="#Degradado_sin_nombre_12"/><linearGradient id="Degradado_sin_nombre_12-4" x1="348.02" y1="139.48" x2="399.54" y2="139.48" xlink:href="#Degradado_sin_nombre_12"/><linearGradient id="Degradado_sin_nombre_12-5" x1="348.02" y1="82.48" x2="399.54" y2="82.48" xlink:href="#Degradado_sin_nombre_12"/><linearGradient id="Degradado_sin_nombre_12-6" x1="348.02" y1="25.48" x2="399.54" y2="25.48" xlink:href="#Degradado_sin_nombre_12"/><linearGradient id="Degradado_sin_nombre_12-7" x1="290.02" y1="310.48" x2="341.54" y2="310.48" xlink:href="#Degradado_sin_nombre_12"/><linearGradient id="Degradado_sin_nombre_12-8" x1="290.02" y1="253.48" x2="341.54" y2="253.48" xlink:href="#Degradado_sin_nombre_12"/><linearGradient id="Degradado_sin_nombre_12-9" x1="290.02" y1="196.48" x2="341.54" y2="196.48" xlink:href="#Degradado_sin_nombre_12"/><linearGradient id="Degradado_sin_nombre_12-10" x1="290.02" y1="139.48" x2="341.54" y2="139.48" xlink:href="#Degradado_sin_nombre_12"/><linearGradient id="Degradado_sin_nombre_12-11" x1="290.02" y1="82.48" x2="341.54" y2="82.48" xlink:href="#Degradado_sin_nombre_12"/><linearGradient id="Degradado_sin_nombre_12-12" x1="290.02" y1="25.48" x2="341.54" y2="25.48" xlink:href="#Degradado_sin_nombre_12"/><linearGradient id="Degradado_sin_nombre_12-13" x1="232.02" y1="310.48" x2="283.54" y2="310.48" xlink:href="#Degradado_sin_nombre_12"/><linearGradient id="Degradado_sin_nombre_12-14" x1="232.02" y1="253.48" x2="283.54" y2="253.48" xlink:href="#Degradado_sin_nombre_12"/><linearGradient id="Degradado_sin_nombre_12-15" x1="232.02" y1="196.48" x2="283.54" y2="196.48" xlink:href="#Degradado_sin_nombre_12"/><linearGradient id="Degradado_sin_nombre_12-16" x1="232.02" y1="139.48" x2="283.54" y2="139.48" xlink:href="#Degradado_sin_nombre_12"/><linearGradient id="Degradado_sin_nombre_12-17" x1="232.02" y1="82.48" x2="283.54" y2="82.48" xlink:href="#Degradado_sin_nombre_12"/><linearGradient id="Degradado_sin_nombre_12-18" x1="232.02" y1="25.48" x2="283.54" y2="25.48" xlink:href="#Degradado_sin_nombre_12"/><linearGradient id="Degradado_sin_nombre_12-19" x1="174.02" y1="310.48" x2="225.54" y2="310.48" xlink:href="#Degradado_sin_nombre_12"/><linearGradient id="Degradado_sin_nombre_12-20" x1="174.02" y1="253.48" x2="225.54" y2="253.48" xlink:href="#Degradado_sin_nombre_12"/><linearGradient id="Degradado_sin_nombre_12-21" x1="174.02" y1="196.48" x2="225.54" y2="196.48" xlink:href="#Degradado_sin_nombre_12"/><linearGradient id="Degradado_sin_nombre_12-22" x1="174.02" y1="139.48" x2="225.54" y2="139.48" xlink:href="#Degradado_sin_nombre_12"/><linearGradient id="Degradado_sin_nombre_12-23" x1="174.02" y1="82.48" x2="225.54" y2="82.48" xlink:href="#Degradado_sin_nombre_12"/><linearGradient id="Degradado_sin_nombre_12-24" x1="174.02" y1="25.48" x2="225.54" y2="25.48" xlink:href="#Degradado_sin_nombre_12"/><linearGradient id="Degradado_sin_nombre_12-25" x1="116.02" y1="310.48" x2="167.54" y2="310.48" xlink:href="#Degradado_sin_nombre_12"/><linearGradient id="Degradado_sin_nombre_12-26" x1="116.02" y1="253.48" x2="167.54" y2="253.48" xlink:href="#Degradado_sin_nombre_12"/><linearGradient id="Degradado_sin_nombre_12-27" x1="116.02" y1="196.48" x2="167.54" y2="196.48" xlink:href="#Degradado_sin_nombre_12"/><linearGradient id="Degradado_sin_nombre_12-28" x1="116.02" y1="139.48" x2="167.54" y2="139.48" xlink:href="#Degradado_sin_nombre_12"/><linearGradient id="Degradado_sin_nombre_12-29" x1="116.02" y1="82.48" x2="167.54" y2="82.48" xlink:href="#Degradado_sin_nombre_12"/><linearGradient id="Degradado_sin_nombre_12-30" x1="116.02" y1="25.48" x2="167.54" y2="25.48" xlink:href="#Degradado_sin_nombre_12"/><linearGradient id="Degradado_sin_nombre_12-31" x1="58.02" y1="310.48" x2="109.54" y2="310.48" xlink:href="#Degradado_sin_nombre_12"/><linearGradient id="Degradado_sin_nombre_12-32" x1="58.02" y1="253.48" x2="109.54" y2="253.48" xlink:href="#Degradado_sin_nombre_12"/><linearGradient id="Degradado_sin_nombre_12-33" x1="58.02" y1="196.48" x2="109.54" y2="196.48" xlink:href="#Degradado_sin_nombre_12"/><linearGradient id="Degradado_sin_nombre_12-34" x1="58.02" y1="139.48" x2="109.54" y2="139.48" xlink:href="#Degradado_sin_nombre_12"/><linearGradient id="Degradado_sin_nombre_12-35" x1="58.02" y1="82.48" x2="109.54" y2="82.48" xlink:href="#Degradado_sin_nombre_12"/><linearGradient id="Degradado_sin_nombre_12-36" x1="58.02" y1="25.48" x2="109.54" y2="25.48" xlink:href="#Degradado_sin_nombre_12"/><linearGradient id="Degradado_sin_nombre_12-37" x1="0.02" y1="310.48" x2="51.54" y2="310.48" xlink:href="#Degradado_sin_nombre_12"/><linearGradient id="Degradado_sin_nombre_12-38" x1="0.02" y1="253.48" x2="51.54" y2="253.48" xlink:href="#Degradado_sin_nombre_12"/><linearGradient id="Degradado_sin_nombre_12-39" x1="0.02" y1="196.48" x2="51.54" y2="196.48" xlink:href="#Degradado_sin_nombre_12"/><linearGradient id="Degradado_sin_nombre_12-40" x1="0.02" y1="139.48" x2="51.54" y2="139.48" xlink:href="#Degradado_sin_nombre_12"/><linearGradient id="Degradado_sin_nombre_12-41" x1="0.02" y1="82.48" x2="51.54" y2="82.48" xlink:href="#Degradado_sin_nombre_12"/><linearGradient id="Degradado_sin_nombre_12-42" x1="0.02" y1="25.48" x2="51.54" y2="25.48" xlink:href="#Degradado_sin_nombre_12"/></defs><g id="Capa_2" data-name="Capa 2"><g id="Capa_3" data-name="Capa 3"><polygon class="cls-1" points="373.78 285 356.95 291.12 348 306.63 351.11 324.26 364.83 335.77 382.73 335.77 396.45 324.26 399.56 306.63 390.61 291.12 373.78 285"/><polygon class="cls-2" points="373.78 285.11 375.67 306.08 390.59 291.23 378.57 308.51 399.54 306.73 379.22 312.23 396.43 324.35 377.33 315.51 382.73 335.85 373.78 316.8 364.83 335.85 370.23 315.51 351.13 324.35 368.33 312.23 348.02 306.73 368.99 308.51 356.96 291.23 371.89 306.08 373.78 285.11"/><polygon class="cls-1" points="373.78 228 356.95 234.12 348 249.63 351.11 267.26 364.83 278.77 382.73 278.77 396.45 267.26 399.56 249.63 390.61 234.12 373.78 228"/><polygon class="cls-3" points="373.78 228.11 375.67 249.08 390.59 234.23 378.57 251.51 399.54 249.73 379.22 255.23 396.43 267.35 377.33 258.51 382.73 278.85 373.78 259.8 364.83 278.85 370.23 258.51 351.13 267.35 368.33 255.23 348.02 249.73 368.99 251.51 356.96 234.23 371.89 249.08 373.78 228.11"/><polygon class="cls-1" points="373.78 171 356.95 177.12 348 192.63 351.11 210.26 364.83 221.78 382.73 221.78 396.45 210.26 399.56 192.63 390.61 177.12 373.78 171"/><polygon class="cls-4" points="373.78 171.11 375.67 192.08 390.59 177.23 378.57 194.51 399.54 192.73 379.22 198.23 396.43 210.35 377.33 201.51 382.73 221.85 373.78 202.8 364.83 221.85 370.23 201.51 351.13 210.35 368.33 198.23 348.02 192.73 368.99 194.51 356.96 177.23 371.89 192.08 373.78 171.11"/><polygon class="cls-1" points="373.78 114 356.95 120.12 348 135.63 351.11 153.26 364.83 164.78 382.73 164.78 396.45 153.26 399.56 135.63 390.61 120.12 373.78 114"/><polygon class="cls-5" points="373.78 114.11 375.67 135.08 390.59 120.23 378.57 137.51 399.54 135.73 379.22 141.23 396.43 153.35 377.33 144.51 382.73 164.85 373.78 145.8 364.83 164.85 370.23 144.51 351.13 153.35 368.33 141.23 348.02 135.73 368.99 137.51 356.96 120.23 371.89 135.08 373.78 114.11"/><polygon class="cls-1" points="373.78 57 356.95 63.12 348 78.63 351.11 96.27 364.83 107.78 382.73 107.78 396.45 96.27 399.56 78.63 390.61 63.12 373.78 57"/><polygon class="cls-6" points="373.78 57.11 375.67 78.08 390.59 63.23 378.57 80.51 399.54 78.73 379.22 84.23 396.43 96.35 377.33 87.51 382.73 107.85 373.78 88.8 364.83 107.85 370.23 87.51 351.13 96.35 368.33 84.23 348.02 78.73 368.99 80.51 356.96 63.23 371.89 78.08 373.78 57.11"/><polygon class="cls-1" points="373.78 0 356.95 6.12 348 21.63 351.11 39.27 364.83 50.77 382.73 50.77 396.45 39.27 399.56 21.63 390.61 6.12 373.78 0"/><polygon class="cls-7" points="373.78 0.11 375.67 21.08 390.59 6.23 378.57 23.51 399.54 21.73 379.22 27.23 396.43 39.35 377.33 30.51 382.73 50.85 373.78 31.8 364.83 50.85 370.23 30.51 351.13 39.35 368.33 27.23 348.02 21.73 368.99 23.51 356.96 6.23 371.89 21.08 373.78 0.11"/><polygon class="cls-1" points="315.78 285 298.95 291.12 290 306.63 293.11 324.26 306.83 335.77 324.73 335.77 338.45 324.26 341.56 306.63 332.61 291.12 315.78 285"/><polygon class="cls-8" points="315.78 285.11 317.67 306.08 332.59 291.23 320.57 308.51 341.54 306.73 321.22 312.23 338.43 324.35 319.33 315.51 324.73 335.85 315.78 316.8 306.83 335.85 312.23 315.51 293.13 324.35 310.33 312.23 290.02 306.73 310.99 308.51 298.96 291.23 313.89 306.08 315.78 285.11"/><polygon class="cls-1" points="315.78 228 298.95 234.12 290 249.63 293.11 267.26 306.83 278.77 324.73 278.77 338.45 267.26 341.56 249.63 332.61 234.12 315.78 228"/><polygon class="cls-9" points="315.78 228.11 317.67 249.08 332.59 234.23 320.57 251.51 341.54 249.73 321.22 255.23 338.43 267.35 319.33 258.51 324.73 278.85 315.78 259.8 306.83 278.85 312.23 258.51 293.13 267.35 310.33 255.23 290.02 249.73 310.99 251.51 298.96 234.23 313.89 249.08 315.78 228.11"/><polygon class="cls-1" points="315.78 171 298.95 177.12 290 192.63 293.11 210.26 306.83 221.78 324.73 221.78 338.45 210.26 341.56 192.63 332.61 177.12 315.78 171"/><polygon class="cls-10" points="315.78 171.11 317.67 192.08 332.59 177.23 320.57 194.51 341.54 192.73 321.22 198.23 338.43 210.35 319.33 201.51 324.73 221.85 315.78 202.8 306.83 221.85 312.23 201.51 293.13 210.35 310.33 198.23 290.02 192.73 310.99 194.51 298.96 177.23 313.89 192.08 315.78 171.11"/><polygon class="cls-1" points="315.78 114 298.95 120.12 290 135.63 293.11 153.26 306.83 164.78 324.73 164.78 338.45 153.26 341.56 135.63 332.61 120.12 315.78 114"/><polygon class="cls-11" points="315.78 114.11 317.67 135.08 332.59 120.23 320.57 137.51 341.54 135.73 321.22 141.23 338.43 153.35 319.33 144.51 324.73 164.85 315.78 145.8 306.83 164.85 312.23 144.51 293.13 153.35 310.33 141.23 290.02 135.73 310.99 137.51 298.96 120.23 313.89 135.08 315.78 114.11"/><polygon class="cls-1" points="315.78 57 298.95 63.12 290 78.63 293.11 96.27 306.83 107.78 324.73 107.78 338.45 96.27 341.56 78.63 332.61 63.12 315.78 57"/><polygon class="cls-12" points="315.78 57.11 317.67 78.08 332.59 63.23 320.57 80.51 341.54 78.73 321.22 84.23 338.43 96.35 319.33 87.51 324.73 107.85 315.78 88.8 306.83 107.85 312.23 87.51 293.13 96.35 310.33 84.23 290.02 78.73 310.99 80.51 298.96 63.23 313.89 78.08 315.78 57.11"/><polygon class="cls-1" points="315.78 0 298.95 6.12 290 21.63 293.11 39.27 306.83 50.77 324.73 50.77 338.45 39.27 341.56 21.63 332.61 6.12 315.78 0"/><polygon class="cls-13" points="315.78 0.11 317.67 21.08 332.59 6.23 320.57 23.51 341.54 21.73 321.22 27.23 338.43 39.35 319.33 30.51 324.73 50.85 315.78 31.8 306.83 50.85 312.23 30.51 293.13 39.35 310.33 27.23 290.02 21.73 310.99 23.51 298.96 6.23 313.89 21.08 315.78 0.11"/><polygon class="cls-1" points="257.78 285 240.95 291.12 232 306.63 235.11 324.26 248.83 335.77 266.73 335.77 280.45 324.26 283.56 306.63 274.61 291.12 257.78 285"/><polygon class="cls-14" points="257.78 285.11 259.67 306.08 274.59 291.23 262.57 308.51 283.54 306.73 263.22 312.23 280.43 324.35 261.33 315.51 266.73 335.85 257.78 316.8 248.83 335.85 254.22 315.51 235.13 324.35 252.33 312.23 232.02 306.73 252.99 308.51 240.97 291.23 255.89 306.08 257.78 285.11"/><polygon class="cls-1" points="257.78 228 240.95 234.12 232 249.63 235.11 267.26 248.83 278.77 266.73 278.77 280.45 267.26 283.56 249.63 274.61 234.12 257.78 228"/><polygon class="cls-15" points="257.78 228.11 259.67 249.08 274.59 234.23 262.57 251.51 283.54 249.73 263.22 255.23 280.43 267.35 261.33 258.51 266.73 278.85 257.78 259.8 248.83 278.85 254.22 258.51 235.13 267.35 252.33 255.23 232.02 249.73 252.99 251.51 240.97 234.23 255.89 249.08 257.78 228.11"/><polygon class="cls-1" points="257.78 171 240.95 177.12 232 192.63 235.11 210.26 248.83 221.78 266.73 221.78 280.45 210.26 283.56 192.63 274.61 177.12 257.78 171"/><polygon class="cls-16" points="257.78 171.11 259.67 192.08 274.59 177.23 262.57 194.51 283.54 192.73 263.22 198.23 280.43 210.35 261.33 201.51 266.73 221.85 257.78 202.8 248.83 221.85 254.22 201.51 235.13 210.35 252.33 198.23 232.02 192.73 252.99 194.51 240.97 177.23 255.89 192.08 257.78 171.11"/><polygon class="cls-1" points="257.78 114 240.95 120.12 232 135.63 235.11 153.26 248.83 164.78 266.73 164.78 280.45 153.26 283.56 135.63 274.61 120.12 257.78 114"/><polygon class="cls-17" points="257.78 114.11 259.67 135.08 274.59 120.23 262.57 137.51 283.54 135.73 263.22 141.23 280.43 153.35 261.33 144.51 266.73 164.85 257.78 145.8 248.83 164.85 254.22 144.51 235.13 153.35 252.33 141.23 232.02 135.73 252.99 137.51 240.97 120.23 255.89 135.08 257.78 114.11"/><polygon class="cls-1" points="257.78 57 240.95 63.12 232 78.63 235.11 96.27 248.83 107.78 266.73 107.78 280.45 96.27 283.56 78.63 274.61 63.12 257.78 57"/><polygon class="cls-18" points="257.78 57.11 259.67 78.08 274.59 63.23 262.57 80.51 283.54 78.73 263.22 84.23 280.43 96.35 261.33 87.51 266.73 107.85 257.78 88.8 248.83 107.85 254.22 87.51 235.13 96.35 252.33 84.23 232.02 78.73 252.99 80.51 240.97 63.23 255.89 78.08 257.78 57.11"/><polygon class="cls-1" points="257.78 0 240.95 6.12 232 21.63 235.11 39.27 248.83 50.77 266.73 50.77 280.45 39.27 283.56 21.63 274.61 6.12 257.78 0"/><polygon class="cls-19" points="257.78 0.11 259.67 21.08 274.59 6.23 262.57 23.51 283.54 21.73 263.22 27.23 280.43 39.35 261.33 30.51 266.73 50.85 257.78 31.8 248.83 50.85 254.22 30.51 235.13 39.35 252.33 27.23 232.02 21.73 252.99 23.51 240.97 6.23 255.89 21.08 257.78 0.11"/><polygon class="cls-1" points="199.78 285 182.95 291.12 174 306.63 177.11 324.26 190.83 335.77 208.73 335.77 222.45 324.26 225.56 306.63 216.6 291.12 199.78 285"/><polygon class="cls-20" points="199.78 285.11 201.67 306.08 216.59 291.23 204.57 308.51 225.54 306.73 205.22 312.23 222.43 324.35 203.33 315.51 208.72 335.85 199.78 316.8 190.83 335.85 196.22 315.51 177.13 324.35 194.33 312.23 174.02 306.73 194.99 308.51 182.97 291.23 197.89 306.08 199.78 285.11"/><polygon class="cls-1" points="199.78 228 182.95 234.12 174 249.63 177.11 267.26 190.83 278.77 208.73 278.77 222.45 267.26 225.56 249.63 216.6 234.12 199.78 228"/><polygon class="cls-21" points="199.78 228.11 201.67 249.08 216.59 234.23 204.57 251.51 225.54 249.73 205.22 255.23 222.43 267.35 203.33 258.51 208.72 278.85 199.78 259.8 190.83 278.85 196.22 258.51 177.13 267.35 194.33 255.23 174.02 249.73 194.99 251.51 182.97 234.23 197.89 249.08 199.78 228.11"/><polygon class="cls-1" points="199.78 171 182.95 177.12 174 192.63 177.11 210.26 190.83 221.78 208.73 221.78 222.45 210.26 225.56 192.63 216.6 177.12 199.78 171"/><polygon class="cls-22" points="199.78 171.11 201.67 192.08 216.59 177.23 204.57 194.51 225.54 192.73 205.22 198.23 222.43 210.35 203.33 201.51 208.72 221.85 199.78 202.8 190.83 221.85 196.22 201.51 177.13 210.35 194.33 198.23 174.02 192.73 194.99 194.51 182.97 177.23 197.89 192.08 199.78 171.11"/><polygon class="cls-1" points="199.78 114 182.95 120.12 174 135.63 177.11 153.26 190.83 164.78 208.73 164.78 222.45 153.26 225.56 135.63 216.6 120.12 199.78 114"/><polygon class="cls-23" points="199.78 114.11 201.67 135.08 216.59 120.23 204.57 137.51 225.54 135.73 205.22 141.23 222.43 153.35 203.33 144.51 208.72 164.85 199.78 145.8 190.83 164.85 196.22 144.51 177.13 153.35 194.33 141.23 174.02 135.73 194.99 137.51 182.97 120.23 197.89 135.08 199.78 114.11"/><polygon class="cls-1" points="199.78 57 182.95 63.12 174 78.63 177.11 96.27 190.83 107.78 208.73 107.78 222.45 96.27 225.56 78.63 216.6 63.12 199.78 57"/><polygon class="cls-24" points="199.78 57.11 201.67 78.08 216.59 63.23 204.57 80.51 225.54 78.73 205.22 84.23 222.43 96.35 203.33 87.51 208.72 107.85 199.78 88.8 190.83 107.85 196.22 87.51 177.13 96.35 194.33 84.23 174.02 78.73 194.99 80.51 182.97 63.23 197.89 78.08 199.78 57.11"/><polygon class="cls-1" points="199.78 0 182.95 6.12 174 21.63 177.11 39.27 190.83 50.77 208.73 50.77 222.45 39.27 225.56 21.63 216.6 6.12 199.78 0"/><polygon class="cls-25" points="199.78 0.11 201.67 21.08 216.59 6.23 204.57 23.51 225.54 21.73 205.22 27.23 222.43 39.35 203.33 30.51 208.72 50.85 199.78 31.8 190.83 50.85 196.22 30.51 177.13 39.35 194.33 27.23 174.02 21.73 194.99 23.51 182.97 6.23 197.89 21.08 199.78 0.11"/><polygon class="cls-1" points="141.78 285 124.95 291.12 116 306.63 119.11 324.26 132.83 335.77 150.73 335.77 164.45 324.26 167.56 306.63 158.6 291.12 141.78 285"/><polygon class="cls-26" points="141.78 285.11 143.67 306.08 158.59 291.23 146.57 308.51 167.54 306.73 147.22 312.23 164.43 324.35 145.33 315.51 150.72 335.85 141.78 316.8 132.83 335.85 138.22 315.51 119.13 324.35 136.33 312.23 116.02 306.73 136.99 308.51 124.97 291.23 139.89 306.08 141.78 285.11"/><polygon class="cls-1" points="141.78 228 124.95 234.12 116 249.63 119.11 267.26 132.83 278.77 150.73 278.77 164.45 267.26 167.56 249.63 158.6 234.12 141.78 228"/><polygon class="cls-27" points="141.78 228.11 143.67 249.08 158.59 234.23 146.57 251.51 167.54 249.73 147.22 255.23 164.43 267.35 145.33 258.51 150.72 278.85 141.78 259.8 132.83 278.85 138.22 258.51 119.13 267.35 136.33 255.23 116.02 249.73 136.99 251.51 124.97 234.23 139.89 249.08 141.78 228.11"/><polygon class="cls-1" points="141.78 171 124.95 177.12 116 192.63 119.11 210.26 132.83 221.78 150.73 221.78 164.45 210.26 167.56 192.63 158.6 177.12 141.78 171"/><polygon class="cls-28" points="141.78 171.11 143.67 192.08 158.59 177.23 146.57 194.51 167.54 192.73 147.22 198.23 164.43 210.35 145.33 201.51 150.72 221.85 141.78 202.8 132.83 221.85 138.22 201.51 119.13 210.35 136.33 198.23 116.02 192.73 136.99 194.51 124.97 177.23 139.89 192.08 141.78 171.11"/><polygon class="cls-1" points="141.78 114 124.95 120.12 116 135.63 119.11 153.26 132.83 164.78 150.73 164.78 164.45 153.26 167.56 135.63 158.6 120.12 141.78 114"/><polygon class="cls-29" points="141.78 114.11 143.67 135.08 158.59 120.23 146.57 137.51 167.54 135.73 147.22 141.23 164.43 153.35 145.33 144.51 150.72 164.85 141.78 145.8 132.83 164.85 138.22 144.51 119.13 153.35 136.33 141.23 116.02 135.73 136.99 137.51 124.97 120.23 139.89 135.08 141.78 114.11"/><polygon class="cls-1" points="141.78 57 124.95 63.12 116 78.63 119.11 96.27 132.83 107.78 150.73 107.78 164.45 96.27 167.56 78.63 158.6 63.12 141.78 57"/><polygon class="cls-30" points="141.78 57.11 143.67 78.08 158.59 63.23 146.57 80.51 167.54 78.73 147.22 84.23 164.43 96.35 145.33 87.51 150.72 107.85 141.78 88.8 132.83 107.85 138.22 87.51 119.13 96.35 136.33 84.23 116.02 78.73 136.99 80.51 124.97 63.23 139.89 78.08 141.78 57.11"/><polygon class="cls-1" points="141.78 0 124.95 6.12 116 21.63 119.11 39.27 132.83 50.77 150.73 50.77 164.45 39.27 167.56 21.63 158.6 6.12 141.78 0"/><polygon class="cls-31" points="141.78 0.11 143.67 21.08 158.59 6.23 146.57 23.51 167.54 21.73 147.22 27.23 164.43 39.35 145.33 30.51 150.72 50.85 141.78 31.8 132.83 50.85 138.22 30.51 119.13 39.35 136.33 27.23 116.02 21.73 136.99 23.51 124.97 6.23 139.89 21.08 141.78 0.11"/><polygon class="cls-1" points="83.78 285 66.95 291.12 58 306.63 61.11 324.26 74.83 335.77 92.73 335.77 106.45 324.26 109.56 306.63 100.61 291.12 83.78 285"/><polygon class="cls-32" points="83.78 285.11 85.67 306.08 100.59 291.23 88.57 308.51 109.54 306.73 89.22 312.23 106.43 324.35 87.33 315.51 92.72 335.85 83.78 316.8 74.83 335.85 80.22 315.51 61.13 324.35 78.33 312.23 58.02 306.73 78.99 308.51 66.97 291.23 81.89 306.08 83.78 285.11"/><polygon class="cls-1" points="83.78 228 66.95 234.12 58 249.63 61.11 267.26 74.83 278.77 92.73 278.77 106.45 267.26 109.56 249.63 100.61 234.12 83.78 228"/><polygon class="cls-33" points="83.78 228.11 85.67 249.08 100.59 234.23 88.57 251.51 109.54 249.73 89.22 255.23 106.43 267.35 87.33 258.51 92.72 278.85 83.78 259.8 74.83 278.85 80.22 258.51 61.13 267.35 78.33 255.23 58.02 249.73 78.99 251.51 66.97 234.23 81.89 249.08 83.78 228.11"/><polygon class="cls-1" points="83.78 171 66.95 177.12 58 192.63 61.11 210.26 74.83 221.78 92.73 221.78 106.45 210.26 109.56 192.63 100.61 177.12 83.78 171"/><polygon class="cls-34" points="83.78 171.11 85.67 192.08 100.59 177.23 88.57 194.51 109.54 192.73 89.22 198.23 106.43 210.35 87.33 201.51 92.72 221.85 83.78 202.8 74.83 221.85 80.22 201.51 61.13 210.35 78.33 198.23 58.02 192.73 78.99 194.51 66.97 177.23 81.89 192.08 83.78 171.11"/><polygon class="cls-1" points="83.78 114 66.95 120.12 58 135.63 61.11 153.26 74.83 164.78 92.73 164.78 106.45 153.26 109.56 135.63 100.61 120.12 83.78 114"/><polygon class="cls-35" points="83.78 114.11 85.67 135.08 100.59 120.23 88.57 137.51 109.54 135.73 89.22 141.23 106.43 153.35 87.33 144.51 92.72 164.85 83.78 145.8 74.83 164.85 80.22 144.51 61.13 153.35 78.33 141.23 58.02 135.73 78.99 137.51 66.97 120.23 81.89 135.08 83.78 114.11"/><polygon class="cls-1" points="83.78 57 66.95 63.12 58 78.63 61.11 96.27 74.83 107.78 92.73 107.78 106.45 96.27 109.56 78.63 100.61 63.12 83.78 57"/><polygon class="cls-36" points="83.78 57.11 85.67 78.08 100.59 63.23 88.57 80.51 109.54 78.73 89.22 84.23 106.43 96.35 87.33 87.51 92.72 107.85 83.78 88.8 74.83 107.85 80.22 87.51 61.13 96.35 78.33 84.23 58.02 78.73 78.99 80.51 66.97 63.23 81.89 78.08 83.78 57.11"/><polygon class="cls-1" points="83.78 0 66.95 6.12 58 21.63 61.11 39.27 74.83 50.77 92.73 50.77 106.45 39.27 109.56 21.63 100.61 6.12 83.78 0"/><polygon class="cls-37" points="83.78 0.11 85.67 21.08 100.59 6.23 88.57 23.51 109.54 21.73 89.22 27.23 106.43 39.35 87.33 30.51 92.72 50.85 83.78 31.8 74.83 50.85 80.22 30.51 61.13 39.35 78.33 27.23 58.02 21.73 78.99 23.51 66.97 6.23 81.89 21.08 83.78 0.11"/><polygon class="cls-1" points="25.78 285 8.95 291.12 0 306.63 3.11 324.26 16.83 335.77 34.73 335.77 48.45 324.26 51.56 306.63 42.6 291.12 25.78 285"/><polygon class="cls-38" points="25.78 285.11 27.67 306.08 42.59 291.23 30.57 308.51 51.54 306.73 31.22 312.23 48.43 324.35 29.33 315.51 34.73 335.85 25.78 316.8 16.83 335.85 22.23 315.51 3.13 324.35 20.33 312.23 0.02 306.73 20.99 308.51 8.96 291.23 23.89 306.08 25.78 285.11"/><polygon class="cls-1" points="25.78 228 8.95 234.12 0 249.63 3.11 267.26 16.83 278.77 34.73 278.77 48.45 267.26 51.56 249.63 42.6 234.12 25.78 228"/><polygon class="cls-39" points="25.78 228.11 27.67 249.08 42.59 234.23 30.57 251.51 51.54 249.73 31.22 255.23 48.43 267.35 29.33 258.51 34.73 278.85 25.78 259.8 16.83 278.85 22.23 258.51 3.13 267.35 20.33 255.23 0.02 249.73 20.99 251.51 8.96 234.23 23.89 249.08 25.78 228.11"/><polygon class="cls-1" points="25.78 171 8.95 177.12 0 192.63 3.11 210.26 16.83 221.78 34.73 221.78 48.45 210.26 51.56 192.63 42.6 177.12 25.78 171"/><polygon class="cls-40" points="25.78 171.11 27.67 192.08 42.59 177.23 30.57 194.51 51.54 192.73 31.22 198.23 48.43 210.35 29.33 201.51 34.73 221.85 25.78 202.8 16.83 221.85 22.23 201.51 3.13 210.35 20.33 198.23 0.02 192.73 20.99 194.51 8.96 177.23 23.89 192.08 25.78 171.11"/><polygon class="cls-1" points="25.78 114 8.95 120.12 0 135.63 3.11 153.26 16.83 164.78 34.73 164.78 48.45 153.26 51.56 135.63 42.6 120.12 25.78 114"/><polygon class="cls-41" points="25.78 114.11 27.67 135.08 42.59 120.23 30.57 137.51 51.54 135.73 31.22 141.23 48.43 153.35 29.33 144.51 34.73 164.85 25.78 145.8 16.83 164.85 22.23 144.51 3.13 153.35 20.33 141.23 0.02 135.73 20.99 137.51 8.96 120.23 23.89 135.08 25.78 114.11"/><polygon class="cls-1" points="25.78 57 8.95 63.12 0 78.63 3.11 96.27 16.83 107.78 34.73 107.78 48.45 96.27 51.56 78.63 42.6 63.12 25.78 57"/><polygon class="cls-42" points="25.78 57.11 27.67 78.08 42.59 63.23 30.57 80.51 51.54 78.73 31.22 84.23 48.43 96.35 29.33 87.51 34.73 107.85 25.78 88.8 16.83 107.85 22.23 87.51 3.13 96.35 20.33 84.23 0.02 78.73 20.99 80.51 8.96 63.23 23.89 78.08 25.78 57.11"/><polygon class="cls-1" points="25.78 0 8.95 6.12 0 21.63 3.11 39.27 16.83 50.77 34.73 50.77 48.45 39.27 51.56 21.63 42.6 6.12 25.78 0"/><polygon class="cls-43" points="25.78 0.11 27.67 21.08 42.59 6.23 30.57 23.51 51.54 21.73 31.22 27.23 48.43 39.35 29.33 30.51 34.73 50.85 25.78 31.8 16.83 50.85 22.23 30.51 3.13 39.35 20.33 27.23 0.02 21.73 20.99 23.51 8.96 6.23 23.89 21.08 25.78 0.11"/></g></g></svg>