<svg xmlns="https://www.w3.org/2000/svg" xmlns:xlink="https://www.w3.org/1999/xlink" viewBox="0 0 396.89 391.44"><defs><style>.cls-1{fill:aqua;}.cls-2{fill:url(#Degradado_sin_nombre_12);}</style><linearGradient id="Degradado_sin_nombre_12" x1="0.15" y1="196.16" x2="396.74" y2="196.16" gradientUnits="userSpaceOnUse"><stop offset="0" stop-color="#ff0"/><stop offset="0.34" stop-color="#f6ff00"/><stop offset="1" stop-color="lime"/></linearGradient></defs><g id="Capa_2" data-name="Capa 2"><g id="Capa_2-2" data-name="Capa 2"><polygon class="cls-1" points="198.44 0 68.92 47.14 0 166.51 23.93 302.26 129.53 390.86 267.36 390.86 372.95 302.26 396.89 166.51 327.97 47.14 198.44 0"/><polygon class="cls-2" points="198.44 0.88 213 162.24 327.87 47.98 235.3 180.95 396.74 167.27 240.36 209.62 372.82 302.91 225.8 234.83 267.31 391.44 198.44 244.79 129.58 391.44 171.09 234.83 24.07 302.91 156.53 209.62 0.15 167.27 161.59 180.95 69.02 47.98 183.89 162.24 198.44 0.88"/></g></g></svg>