<svg xmlns="http://www.w3.org/2000/svg" viewBox="0 0 426.81 426.87"><g id="Capa_2" data-name="Capa 2"><g id="Capa_4" data-name="Capa 4"><path d="M305.64.27c61.46,1.05,112,46.63,120,107.65a133,133,0,0,1,1.05,16.93c.07,59,.2,118,0,177-.2,55.91-33.78,102.25-86.66,119a113.38,113.38,0,0,1-32.84,5.47c-62.52.51-125,.81-187.56.09-59.81-.7-111.1-47.68-118.45-107.08A145.17,145.17,0,0,1,.1,301.92q-.12-88.5,0-177C.25,69.48,33.88,23,85.73,6A127.1,127.1,0,0,1,126.08.07C155.25.18,275-.26,305.64.27ZM42.57,213.41c0,30.34-.06,60.68,0,91a89.21,89.21,0,0,0,1.21,15.93C51,358.59,82,384.12,121.35,384.17q92,.12,184.08,0a82.7,82.7,0,0,0,14.92-1.23c37.9-7.1,63.72-37.88,63.83-76.51q.26-93,0-186A75.51,75.51,0,0,0,383,106.44c-7.12-38.08-38-63.72-77-63.79q-92.53-.18-185.08,0a78.2,78.2,0,0,0-14.42,1.2C68.55,51,42.81,81.79,42.61,120.39,42.44,151.4,42.57,182.4,42.57,213.41Z"/><path d="M210.17,320.08C150.39,317.32,104.08,268,106.71,209.93c2.69-59.41,52.05-105.75,109.91-103.21,59.69,2.63,106.23,52.18,103.46,110.15C317.23,276.43,267.91,322.75,210.17,320.08Zm3.53-170.69c-35.33-.1-64.18,28.41-64.33,63.57-.15,35.32,28.34,64.24,63.47,64.45a64,64,0,1,0,.86-128Z"/><path d="M352.16,101.34a26.72,26.72,0,1,1-26.74-26.68A26.94,26.94,0,0,1,352.16,101.34Z"/></g></g></svg>